<svg id="Layer_1" data-name="Layer 1" xmlns="http://www.w3.org/2000/svg" viewBox="0 0 61.17 72.29"><title>Android</title><path d="M2189.47,2174.42a4.31,4.31,0,0,0-3.17,1.3,4.27,4.27,0,0,0-1.3,3.13v18.68a4.45,4.45,0,0,0,4.47,4.47,4.26,4.26,0,0,0,3.15-1.3,4.37,4.37,0,0,0,1.28-3.17v-18.68a4.45,4.45,0,0,0-4.43-4.43h0Zm0,0" transform="translate(-2185 -2151)"/><path d="M2225.45,2157.65l3.08-5.69a0.57,0.57,0,0,0-.21-0.87,0.61,0.61,0,0,0-.87.26l-3.12,5.73a21.82,21.82,0,0,0-17.47,0l-3.13-5.73a0.61,0.61,0,0,0-.87-0.26,0.57,0.57,0,0,0-.21.87l3.09,5.69a19,19,0,0,0-7.47,6.67,16.82,16.82,0,0,0-2.78,9.36h40.18a16.83,16.83,0,0,0-2.78-9.36,19.1,19.1,0,0,0-7.43-6.67h0Zm-17.84,8.27a1.62,1.62,0,0,1-1.19.5,1.55,1.55,0,0,1-1.17-.5,1.73,1.73,0,0,1,0-2.39,1.56,1.56,0,0,1,1.17-.5,1.69,1.69,0,0,1,1.19,2.89h0Zm18.31,0a1.56,1.56,0,0,1-1.17.5,1.7,1.7,0,0,1,0-3.39,1.57,1.57,0,0,1,1.17.5,1.73,1.73,0,0,1,0,2.39h0Zm0,0" transform="translate(-2185 -2151)"/><path d="M2195.64,2204.18a4.75,4.75,0,0,0,4.78,4.78h3.22l0,9.86a4.33,4.33,0,0,0,1.3,3.17,4.28,4.28,0,0,0,3.13,1.3,4.44,4.44,0,0,0,4.47-4.47V2209h6v9.86a4.47,4.47,0,1,0,8.95,0V2209h3.26a4.74,4.74,0,0,0,4.73-4.78v-28.94h-39.88v28.93Zm0,0" transform="translate(-2185 -2151)"/><path d="M2241.69,2174.42a4.29,4.29,0,0,0-3.12,1.28,4.24,4.24,0,0,0-1.3,3.15v18.68a4.31,4.31,0,0,0,1.3,3.17,4.27,4.27,0,0,0,3.12,1.3,4.45,4.45,0,0,0,4.48-4.47v-18.68a4.25,4.25,0,0,0-1.3-3.15,4.35,4.35,0,0,0-3.17-1.28h0Zm0,0" transform="translate(-2185 -2151)"/></svg>