<svg id="Layer_1" data-name="Layer 1" xmlns="http://www.w3.org/2000/svg" viewBox="0 0 298.01 365.55"><defs><style>.cls-1{fill-rule:evenodd;}</style></defs><title>ios</title><path class="cls-1" d="M2229.82,1977.33h2.57c2,25.78-7.75,45.07-19.74,59-11.68,13.8-27.75,27.27-53.78,25.24-1.73-25.4,8.17-43.26,20.07-57.23,11.06-12.92,31.36-24.44,50.89-27h0Zm0,0" transform="translate(-2010.42 -1977.33)"/><path class="cls-1" d="M2308.43,2245.63v0.78A212.64,212.64,0,0,1,2278,2305c-11.6,16-25.87,37.46-51.27,37.46-21.87,0-36.44-14.11-58.93-14.51-23.84-.38-36.92,11.84-58.63,14.89h-7.44c-16-2.35-28.85-15-38.24-26.33-27.67-33.71-49.08-77.21-53.07-132.85v-16.39c1.72-39.81,21-72.26,46.79-87.93,13.56-8.33,32.22-15.45,53-12.32,8.93,1.42,18,4.48,26,7.44,7.52,3,17,8.09,25.92,7.85,6.12-.16,12.16-3.37,18.28-5.56,17.86-6.52,35.42-13.89,58.63-10.43,27.81,4.23,47.57,16.53,59.71,35.66-23.52,15-42.1,37.56-38.95,76,2.81,35,23.2,55.48,48.6,67.56h0Zm0,0" transform="translate(-2010.42 -1977.33)"/></svg>