<svg id="Слой_2" data-name="Слой 2" xmlns="http://www.w3.org/2000/svg" viewBox="0 0 10.08 8.4"><defs><style>.cls-1{fill:white;}</style></defs><title>test-1</title><path class="cls-1" d="M23.32-4.32A2.25,2.25,0,0,0,21.1-2,1.73,1.73,0,0,0,22.84-.28h0.3a1.2,1.2,0,0,0,1.2-1.21h0a0.72,0.72,0,0,0-.72-0.72,0.49,0.49,0,0,0-.35.16l-0.13.14a0.34,0.34,0,0,1-.45,0,0.33,0.33,0,0,1,0-.49l0.08-.09a1.23,1.23,0,0,1,.91-0.4h0A1.34,1.34,0,0,1,25-1.5h0A1.85,1.85,0,0,1,23.13.36H22.84A2.4,2.4,0,0,1,20.45-2h0A2.91,2.91,0,0,1,23.35-5h4.11A1.54,1.54,0,0,0,29-6.5H23.37A4.47,4.47,0,0,0,18.92-2h0A3.92,3.92,0,0,0,22.82,1.9h0.33a3.31,3.31,0,0,0,3.3-3.32V-1.58a2.76,2.76,0,0,0-.33-1.33h0.4a1.41,1.41,0,0,0,1.4-1.41H23.32Z" transform="translate(-18.92 6.5)"/></svg>